<svg width="50" height="50" viewBox="0 0 50 50" fill="none" xmlns="http://www.w3.org/2000/svg">
<path d="M25.1113 4.94233C31.6831 4.94233 32.4613 4.97112 35.0459 5.0863C37.4478 5.19188 38.7449 5.595 39.6096 5.93094C40.753 6.37245 41.5792 6.90995 42.4343 7.76419C43.299 8.62802 43.8275 9.44386 44.2694 10.586C44.6057 11.4499 45.0092 12.7552 45.1149 15.1452C45.2302 17.7367 45.259 18.5141 45.259 25.0697C45.259 31.6348 45.2302 32.4123 45.1149 34.9942C45.0092 37.3937 44.6057 38.6894 44.2694 39.5533C43.8275 40.6955 43.2894 41.5209 42.4343 42.3751C41.5696 43.239 40.753 43.7669 39.6096 44.2084C38.7449 44.5443 37.4382 44.9474 35.0459 45.053C32.4517 45.1682 31.6735 45.197 25.1113 45.197C18.5395 45.197 17.7613 45.1682 15.1768 45.053C12.7748 44.9474 11.4777 44.5443 10.613 44.2084C9.46968 43.7669 8.64341 43.2294 7.7883 42.3751C6.92359 41.5113 6.39516 40.6955 5.9532 39.5533C5.61692 38.6894 5.21339 37.3841 5.10771 34.9942C4.99241 32.4027 4.96359 31.6252 4.96359 25.0697C4.96359 18.5045 4.99241 17.7271 5.10771 15.1452C5.21339 12.7456 5.61692 11.4499 5.9532 10.586C6.39516 9.44386 6.9332 8.61842 7.7883 7.76419C8.65301 6.90035 9.46968 6.37245 10.613 5.93094C11.4777 5.595 12.7844 5.19188 15.1768 5.0863C17.7613 4.97112 18.5395 4.94233 25.1113 4.94233ZM25.1113 0.517578C18.4338 0.517578 17.598 0.546373 14.975 0.66155C12.3617 0.776728 10.565 1.19905 9.00851 1.80373C7.38477 2.43721 6.01085 3.27225 4.64653 4.64478C3.2726 6.00772 2.43671 7.38026 1.80259 8.99275C1.1973 10.5572 0.77455 12.3425 0.659255 14.9532C0.54396 17.5831 0.515137 18.4181 0.515137 25.0889C0.515137 31.7596 0.54396 32.5946 0.659255 35.2149C0.77455 37.8256 1.1973 39.6205 1.80259 41.1754C2.43671 42.7975 3.2726 44.17 4.64653 45.5329C6.01085 46.8959 7.38477 47.7405 8.9989 48.3644C10.565 48.9691 12.352 49.3914 14.9654 49.5066C17.5883 49.6217 18.4242 49.6505 25.1017 49.6505C31.7792 49.6505 32.6151 49.6217 35.238 49.5066C37.8514 49.3914 39.648 48.9691 41.2045 48.3644C42.8186 47.7405 44.1926 46.8959 45.5569 45.5329C46.9212 44.17 47.7667 42.7975 48.3912 41.185C48.9965 39.6205 49.4193 37.8352 49.5346 35.2245C49.6499 32.6042 49.6787 31.7692 49.6787 25.0985C49.6787 18.4277 49.6499 17.5927 49.5346 14.9724C49.4193 12.3617 48.9965 10.5668 48.3912 9.01195C47.7859 7.38026 46.95 6.00772 45.5761 4.64478C44.2118 3.28185 42.8379 2.43721 41.2237 1.81333C39.6577 1.20865 37.8706 0.786326 35.2572 0.671149C32.6247 0.546373 31.7888 0.517578 25.1113 0.517578Z" fill="white"/>
<path d="M25.1095 12.4648C18.1341 12.4648 12.4751 18.1182 12.4751 25.0864C12.4751 32.0547 18.1341 37.708 25.1095 37.708C32.0848 37.708 37.7438 32.0547 37.7438 25.0864C37.7438 18.1182 32.0848 12.4648 25.1095 12.4648ZM25.1095 33.2736C20.5842 33.2736 16.9139 29.6071 16.9139 25.0864C16.9139 20.5657 20.5842 16.8992 25.1095 16.8992C29.6348 16.8992 33.305 20.5657 33.305 25.0864C33.305 29.6071 29.6348 33.2736 25.1095 33.2736Z" fill="white"/>
<circle cx="38.3872" cy="11.7759" r="3.07083" fill="white"/>
</svg>
