<svg width="43" height="36" viewBox="0 0 43 36" fill="none" xmlns="http://www.w3.org/2000/svg">
<path d="M13.5127 35.7333C29.7158 35.7333 38.5807 21.9842 38.5807 10.0647C38.5807 9.67816 38.5723 9.28305 38.5555 8.89653C40.28 7.61952 41.7682 6.03777 42.9502 4.2256C41.3441 4.95728 39.6389 5.43514 37.8928 5.64285C39.7313 4.5144 41.1079 2.74166 41.7674 0.653253C40.0378 1.70284 38.1463 2.44323 36.174 2.8427C34.8451 1.39683 33.0881 0.439501 31.1745 0.11871C29.261 -0.202082 27.2975 0.131536 25.5877 1.06798C23.8779 2.00443 22.517 3.49155 21.7154 5.29941C20.9137 7.10728 20.716 9.13521 21.1529 11.0697C17.6507 10.8897 14.2245 9.95812 11.0965 8.33533C7.9685 6.71253 5.20845 4.43474 2.99529 1.64963C1.87045 3.63546 1.52625 5.98535 2.03264 8.22171C2.53903 10.4581 3.85801 12.4131 5.72153 13.6894C4.32251 13.6439 2.95415 13.2583 1.72948 12.5642V12.6759C1.72823 14.7599 2.43182 16.78 3.72066 18.3928C5.0095 20.0057 6.80405 21.1117 8.79924 21.523C7.50327 21.8861 6.1431 21.939 4.82397 21.6776C5.38697 23.4698 6.48238 25.0374 7.95731 26.1615C9.43223 27.2855 11.2131 27.9101 13.0513 27.9479C9.93054 30.458 6.07544 31.8196 2.10696 31.8131C1.40318 31.812 0.700096 31.7678 0.00146484 31.6808C4.03302 34.3293 8.7228 35.7359 13.5127 35.7333Z" fill="white"/>
</svg>
