<svg width="55" height="55" viewBox="0 0 55 55" fill="none" xmlns="http://www.w3.org/2000/svg">
<g clip-path="url(#clip0_685_667)">
<path fill-rule="evenodd" clip-rule="evenodd" d="M53.393 13.5169C53.7709 12.2575 53.393 11.332 51.5957 11.332H45.6516C44.1399 11.332 43.4432 12.1313 43.0659 13.0134C43.0659 13.0134 40.0425 20.3811 35.7604 25.1673C34.3755 26.5528 33.7458 26.9941 32.9894 26.9941C32.6121 26.9941 32.0651 26.5528 32.0651 25.2941V13.5169C32.0651 12.0058 31.6262 11.332 30.3668 11.332H21.025C20.0808 11.332 19.5121 12.0335 19.5121 12.6988C19.5121 14.1314 21.6535 14.4623 21.8744 18.4926V27.2459C21.8744 29.165 21.5279 29.514 20.7721 29.514C18.7575 29.514 13.8554 22.1125 10.9479 13.6436C10.378 11.9973 9.80687 11.3326 8.28793 11.3326H2.34379C0.64495 11.332 0.305664 12.1313 0.305664 13.0128C0.305664 14.5872 2.32025 22.3962 9.68854 32.7239C14.6003 39.7765 21.5207 43.6004 27.8186 43.6004C31.5966 43.6004 32.0645 42.751 32.0645 41.2882V35.958C32.0645 34.2592 32.4225 33.9205 33.619 33.9205C34.5005 33.9205 36.0115 34.3606 39.5384 37.7613C43.5688 41.7917 44.2329 43.5998 46.5004 43.5998H52.4446C54.1422 43.5998 54.9916 42.7504 54.502 41.0751C53.9653 39.4046 52.0413 36.9813 49.4882 34.1094C48.1027 32.4722 46.0241 30.7087 45.3944 29.8267C44.5124 28.6936 44.7648 28.1901 45.3944 27.1819C45.3944 27.1819 52.6377 16.9804 53.393 13.5169Z" fill="white"/>
</g>
<defs>
<clipPath id="clip0_685_667">
<rect width="55" height="55" fill="white" transform="translate(-0.000488281)"/>
</clipPath>
</defs>
</svg>
